<?xml version="1.0" encoding="utf-8"?>
<!-- Generator: Adobe Illustrator 16.0.0, SVG Export Plug-In . SVG Version: 6.00 Build 0)  -->
<!DOCTYPE svg PUBLIC "-//W3C//DTD SVG 1.1//EN" "http://www.w3.org/Graphics/SVG/1.1/DTD/svg11.dtd">
<svg version="1.1" id="Layer_1" xmlns="http://www.w3.org/2000/svg" xmlns:xlink="http://www.w3.org/1999/xlink" x="0px" y="0px"
	 width="100px" height="100px" viewBox="0 0 100 100" enable-background="new 0 0 100 100" xml:space="preserve">
<g>
	<g>
		<g id="XMLID_3_">
			<g>
				<path fill="#010101" d="M78.08,60.23c0-1.092-0.891-1.972-1.971-1.972c-1.09,0-1.971,0.88-1.971,1.972
					c0,1.078,0.881,1.97,1.971,1.97C77.189,62.2,78.08,61.311,78.08,60.23z M76.109,64.16c-2.18,0-3.939-1.76-3.939-3.93
					c0-2.182,1.76-3.94,3.939-3.94c2.17,0,3.939,1.76,3.939,3.94C80.05,62.4,78.279,64.16,76.109,64.16z"/>
				<path fill="#010101" d="M64.49,62.59L76.3,46.84c0.33-0.44,0.95-0.52,1.38-0.2c0.44,0.33,0.53,0.95,0.2,1.38L66.07,63.77
					c-0.33,0.432-0.95,0.521-1.381,0.201C64.26,63.641,64.17,63.02,64.49,62.59z"/>
				<path fill="#010101" d="M70.2,50.38c0,2.181-1.761,3.94-3.931,3.94c-2.181,0-3.939-1.762-3.939-3.94
					c0-2.17,1.76-3.94,3.939-3.94C68.439,46.44,70.2,48.21,70.2,50.38z M66.27,52.35c1.08,0,1.961-0.879,1.961-1.97
					c0-1.09-0.881-1.96-1.961-1.96c-1.09,0-1.97,0.87-1.97,1.96C64.3,51.471,65.18,52.35,66.27,52.35z"/>
				<path fill="#010101" d="M73.09,37.12c0.23-0.86-0.148-1.77-0.92-2.21v0.71c0,0.54-0.439,0.98-0.979,0.98
					c-0.551,0-0.99-0.44-0.99-0.98v-0.71c-0.771,0.44-1.15,1.35-0.91,2.21c0.229,0.86,1.01,1.46,1.9,1.46
					C72.08,38.58,72.859,37.98,73.09,37.12z M46.69,37.69C46.43,24.33,56.859,25.41,70.2,24.81v-8.88c0-0.54,0.438-0.99,0.989-0.99
					c0.541,0,0.979,0.45,0.979,0.99v8.88c13.34,0.6,23.78-0.48,23.511,12.88c-0.27,13.35-11.14,36.26-24.49,36.32
					C57.83,73.95,46.96,51.04,46.69,37.69z M71.189,40.55c-1.989,0-3.66-1.47-3.91-3.44c-0.25-1.96,1-3.81,2.921-4.31v-6.02
					c-12.3,0.54-21.92-1.4-21.65,10.91s10.32,34.35,22.64,34.35C83.5,72.04,93.55,50,93.82,37.69
					c0.27-12.31-9.352-10.37-21.65-10.91v6.02c1.92,0.5,3.17,2.35,2.92,4.31C74.84,39.08,73.17,40.55,71.189,40.55z"/>
				<path d="M33.83,47.15c5.86,0,8.59,5.23,8.59,12.39c0,7.81-3.06,12.7-8.85,12.7c-5.6,0-8.59-5.08-8.62-12.471
					C24.95,52.23,28.16,47.15,33.83,47.15z M37.83,59.62c0-5.64-1.35-8.96-4.11-8.96c-2.46,0-4.18,3.029-4.14,9.109
					c-0.04,5.899,1.6,8.961,4.14,8.961C36.41,68.73,37.83,65.439,37.83,59.62z"/>
				<rect x="35.16" y="36.97" width="0.76" height="0.54"/>
				<path d="M35.16,36.97v0.54h-1.15c-0.02-0.18-0.03-0.36-0.04-0.54H35.16z"/>
				<path d="M35.16,32.63v4.34h-1.19c-0.03-0.58-0.04-1.17-0.04-1.82v-2.52H35.16z"/>
				<path d="M34.03,38.15h0.02c-0.02-0.22-0.03-0.43-0.04-0.64h1.15v2.34h-1.37l-1.39-2.34h1.35
					C33.84,37.72,33.94,37.94,34.03,38.15z"/>
				<path d="M34.01,37.51h-0.26c-0.09-0.18-0.18-0.36-0.27-0.54h0.49C33.98,37.15,33.99,37.33,34.01,37.51z"/>
				<path d="M32.08,36.97h1.4c0.09,0.18,0.18,0.36,0.27,0.54H32.4L32.08,36.97z"/>
				<path d="M32.08,36.97l0.32,0.54h-1.76v-0.24c0-0.1,0-0.2,0-0.3H32.08z"/>
				<path d="M30.64,37.27v0.24h-1.21v-0.54h1.21C30.64,37.07,30.64,37.17,30.64,37.27z"/>
				<path d="M32.8,35.73c0.24,0.41,0.47,0.82,0.68,1.24h-1.4l-0.17-0.29c-0.46-0.79-0.95-1.68-1.3-2.5l-0.03,0.01
					c0.05,0.86,0.06,1.73,0.06,2.78h-1.21v-4.34h1.5L32.8,35.73z"/>
				<rect x="29.43" y="37.51" width="1.21" height="2.34"/>
				<rect x="25.46" y="36.97" width="3.97" height="0.54"/>
				<polygon points="28.43,38.75 28.43,39.85 24.14,39.85 24.14,37.51 25.46,37.51 25.46,38.75 				"/>
				<rect x="24.14" y="36.97" width="1.32" height="0.54"/>
				<rect x="24.14" y="32.63" width="1.32" height="4.34"/>
				<path d="M4.41,62.68l9.9-15.12h5.41V62.2h3.14v3.47h-3.14v6.16h-4.33v-6.16H4.41V62.68z M15.39,51.37
					c-0.75,1.53-1.38,2.76-2.13,4.101L8.82,62.12L8.78,62.2h6.61v-6.61c0-1.38,0.04-2.8,0.15-4.22H15.39z"/>
				<path d="M20.1,37.17c0.48,0,0.93-0.06,1.32-0.2h2.72v0.54h-4.68v-0.38C19.63,37.16,19.85,37.17,20.1,37.17z"/>
				<rect x="18.15" y="37.51" width="1.31" height="2.34"/>
				<path d="M18.15,36.97h3.27c-0.39,0.14-0.84,0.2-1.32,0.2c-0.25,0-0.47-0.01-0.64-0.04v0.38h-1.31V36.97z"/>
				<path d="M21.69,34.81c0-0.8-0.56-1.23-1.47-1.23c-0.37,0-0.63,0.03-0.76,0.07v2.44c0.16,0.04,0.37,0.06,0.64,0.06
					C21.08,36.15,21.69,35.66,21.69,34.81z M23,34.76c0,0.69-0.21,1.26-0.62,1.64c-0.25,0.26-0.58,0.45-0.96,0.57h-3.27v-4.24
					c0.47-0.09,1.12-0.15,2.01-0.15c0.97,0,1.67,0.2,2.14,0.59C22.73,33.52,23,34.09,23,34.76z"/>
				<path d="M18.15,36.97v0.54h-3.64c0.07-0.17,0.12-0.35,0.16-0.54H18.15z"/>
				<path d="M13.4,36.97h1.27c-0.04,0.19-0.09,0.37-0.16,0.54h-1.3C13.3,37.34,13.37,37.16,13.4,36.97z"/>
				<path d="M10.57,36.97h2.68c-0.34,0.29-0.78,0.45-1.35,0.45C11.39,37.42,10.93,37.26,10.57,36.97z"/>
				<path d="M13.21,37.51H8.78c0-0.19-0.03-0.37-0.07-0.54h1.86c0.36,0.29,0.82,0.45,1.33,0.45c0.57,0,1.01-0.16,1.35-0.45h0.15
					C13.37,37.16,13.3,37.34,13.21,37.51z"/>
				<path d="M11.37,67.57l0.8,1.33c0.2,0.34,0.38,0.699,0.52,1.039h0.01c-0.03-0.42-0.05-0.819-0.05-1.289v-1.08h0.53v3.1h-0.59
					l-0.8-1.359c-0.2-0.34-0.41-0.729-0.56-1.069h-0.02c0.03,0.399,0.03,0.81,0.03,1.319v1.109h-0.52v-3.1H11.37z"/>
				<path d="M12.25,33.74c-0.67,0-1.15,0.59-1.15,1.44c0.01,0.72,0.42,1.28,1.15,1.28c0.53,0,0.92-0.25,1.12-0.58
					c0.05-0.09,0.08-0.2,0.08-0.38C13.46,34.56,13.1,33.74,12.25,33.74z M9.79,35.26c0-1.33,1.03-2.49,2.52-2.49
					c1.62,0,2.49,1.27,2.49,2.97c0,0.45-0.04,0.86-0.13,1.23H13.4c0.03-0.05,0.04-0.11,0.05-0.16l-0.02-0.01
					c-0.06,0.06-0.12,0.12-0.18,0.17h-2.68C10.09,36.6,9.79,36,9.79,35.26z"/>
				<path d="M13.59,38.98c-0.61,0.56-1.45,0.89-2.38,0.95c-0.3,0.03-0.6,0.03-0.79,0.02v-1.04c0.21,0.02,0.4,0.01,0.72-0.02
					c0.52-0.04,1.03-0.22,1.42-0.54c0.28-0.22,0.5-0.5,0.65-0.84h1.3C14.31,38.12,13.98,38.6,13.59,38.98z"/>
				<polygon points="10.29,70.2 10.29,70.67 8.46,70.67 8.46,67.57 9.02,67.57 9.02,70.2 				"/>
				<path d="M7.41,37.51c-0.01-0.21-0.07-0.39-0.19-0.54h1.49c0.04,0.17,0.07,0.35,0.07,0.54H7.41z"/>
				<path d="M7.22,36.97c0.12,0.15,0.18,0.33,0.19,0.54H3.67v-0.54H7.22z"/>
				<path d="M6.73,69.08c0.42,0,0.68-0.21,0.68-0.57c0-0.35-0.24-0.529-0.63-0.529c-0.16,0-0.27,0.011-0.33,0.029v1.04
					C6.52,69.07,6.61,69.08,6.73,69.08z M5.89,67.609c0.2-0.039,0.48-0.061,0.86-0.061c0.42,0,0.72,0.08,0.92,0.25
					c0.18,0.15,0.3,0.4,0.3,0.682c0,0.299-0.09,0.539-0.26,0.709c-0.23,0.221-0.58,0.33-0.98,0.33c-0.11,0-0.21-0.011-0.28-0.021
					v1.17H5.89V67.609z"/>
				<path d="M8.78,37.56c0,1.33-1.1,2.41-2.82,2.41c-0.8,0-1.48-0.2-1.84-0.4l0.27-1c0.3,0.16,0.9,0.36,1.53,0.36
					c0.77,0,1.51-0.44,1.51-1.27c0-0.05,0-0.1-0.02-0.15h1.37C8.78,37.53,8.78,37.54,8.78,37.56z"/>
				<path d="M6.18,35.34c0.61,0,1.22,0.14,1.69,0.45c0.4,0.25,0.71,0.64,0.84,1.18H7.22c-0.27-0.4-0.84-0.63-1.77-0.63
					c-0.39,0-0.68,0.02-0.96,0.06l0.46-3.51h3.61v1.09H5.88l-0.21,1.39C5.83,35.35,5.97,35.34,6.18,35.34z"/>
			</g>
		</g>
	</g>
</g>
</svg>
